HIERARCHY
ROOT Hips
{
	OFFSET -14.64140 90.27770 -84.91600
	CHANNELS 6 Xposition Yposition Zposition Zrotation Xrotation Yrotation
	JOINT Spine
	{
		OFFSET 0.00000 13.20850 -1.60436
		CHANNELS 3 Zrotation Xrotation Yrotation
		JOINT Spine1
		{
			OFFSET 0.00000 8.61716 0.00000
			CHANNELS 3 Zrotation Xrotation Yrotation
			JOINT Spine2
			{
				OFFSET 0.00000 8.61717 0.00000
				CHANNELS 3 Zrotation Xrotation Yrotation
				JOINT Spine3
				{
					OFFSET 0.00000 8.61717 0.00000
					CHANNELS 3 Zrotation Xrotation Yrotation
					JOINT Neck
					{
						OFFSET 0.00000 11.07920 1.10792
						CHANNELS 3 Zrotation Xrotation Yrotation
						JOINT Neck1
						{
							OFFSET 0.00000 7.08032 0.00000
							CHANNELS 3 Zrotation Xrotation Yrotation
							JOINT Head
							{
								OFFSET 0.00000 7.08031 0.00000
								CHANNELS 3 Zrotation Xrotation Yrotation
								End site
								{
									OFFSET 0.00000 0.00000 0.00000
								}
							}
						}
					}
					JOINT RightShoulder
					{
						OFFSET -0.01000 7.91373 5.19711
						CHANNELS 3 Zrotation Xrotation Yrotation
						JOINT RightArm
						{
							OFFSET -18.41580 0.00000 0.00000
							CHANNELS 3 Zrotation Xrotation Yrotation
							JOINT RightForeArm
							{
								OFFSET -29.11090 0.00000 0.00000
								CHANNELS 3 Zrotation Xrotation Yrotation
								JOINT RightHand
								{
									OFFSET -24.65040 0.00000 0.00000
									CHANNELS 3 Zrotation Xrotation Yrotation
									JOINT RightHandThumb1
									{
										OFFSET -5.35114 -0.85590 3.97906
										CHANNELS 3 Zrotation Xrotation Yrotation
										JOINT RightHandThumb2
										{
											OFFSET -4.52789 0.00000 0.00000
											CHANNELS 3 Zrotation Xrotation Yrotation
											JOINT RightHandThumb3
											{
												OFFSET -2.46976 0.00000 0.00000
												CHANNELS 3 Zrotation Xrotation Yrotation
												End site
												{
													OFFSET 0.00000 0.00000 0.00000
												}
											}
										}
									}
									JOINT RightHandIndex1
									{
										OFFSET -14.26970 0.00000 2.88139
										CHANNELS 3 Zrotation Xrotation Yrotation
										JOINT RightHandIndex2
										{
											OFFSET -5.48836 0.00000 0.00000
											CHANNELS 3 Zrotation Xrotation Yrotation
											JOINT RightHandIndex3
											{
												OFFSET -3.01859 0.00000 0.00000
												CHANNELS 3 Zrotation Xrotation Yrotation
												End site
												{
													OFFSET 0.00000 0.00000 0.00000
												}
											}
										}
									}
									JOINT RightHandMiddle1
									{
										OFFSET -14.26970 0.00000 -0.09147
										CHANNELS 3 Zrotation Xrotation Yrotation
										JOINT RightHandMiddle2
										{
											OFFSET -6.17441 0.00000 0.00000
											CHANNELS 3 Zrotation Xrotation Yrotation
											JOINT RightHandMiddle3
											{
												OFFSET -3.56743 0.00000 0.00000
												CHANNELS 3 Zrotation Xrotation Yrotation
												End site
												{
													OFFSET 0.00000 0.00000 0.00000
												}
											}
										}
									}
									JOINT RightHandRing1
									{
										OFFSET -12.69180 0.00000 -3.06433
										CHANNELS 3 Zrotation Xrotation Yrotation
										JOINT RightHandRing2
										{
											OFFSET -5.62556 0.00000 0.00000
											CHANNELS 3 Zrotation Xrotation Yrotation
											JOINT RightHandRing3
											{
												OFFSET -3.56744 0.00000 0.00000
												CHANNELS 3 Zrotation Xrotation Yrotation
												End site
												{
													OFFSET 0.00000 0.00000 0.00000
												}
											}
										}
									}
									JOINT RightHandPinky1
									{
										OFFSET -11.11390 0.00000 -6.03719
										CHANNELS 3 Zrotation Xrotation Yrotation
										JOINT RightHandPinky2
										{
											OFFSET -4.52789 0.00000 0.00000
											CHANNELS 3 Zrotation Xrotation Yrotation
											JOINT RightHandPinky3
											{
												OFFSET -2.46976 0.00000 0.00000
												CHANNELS 3 Zrotation Xrotation Yrotation
												End site
												{
													OFFSET 0.00000 0.00000 0.00000
												}
											}
										}
									}
								}
							}
						}
					}
					JOINT LeftShoulder
					{
						OFFSET 0.01000 7.91373 5.19711
						CHANNELS 3 Zrotation Xrotation Yrotation
						JOINT LeftArm
						{
							OFFSET 18.41580 0.00000 0.00000
							CHANNELS 3 Zrotation Xrotation Yrotation
							JOINT LeftForeArm
							{
								OFFSET 29.11090 0.00000 0.00000
								CHANNELS 3 Zrotation Xrotation Yrotation
								JOINT LeftHand
								{
									OFFSET 24.65040 0.00000 0.00000
									CHANNELS 3 Zrotation Xrotation Yrotation
									JOINT LeftHandThumb1
									{
										OFFSET 5.35114 -0.85590 3.97906
										CHANNELS 3 Zrotation Xrotation Yrotation
										JOINT LeftHandThumb2
										{
											OFFSET 4.52789 0.00000 0.00000
											CHANNELS 3 Zrotation Xrotation Yrotation
											JOINT LeftHandThumb3
											{
												OFFSET 2.46977 0.00000 0.00000
												CHANNELS 3 Zrotation Xrotation Yrotation
												End site
												{
													OFFSET 0.00000 0.00000 0.00000
												}
											}
										}
									}
									JOINT LeftHandIndex1
									{
										OFFSET 14.26970 0.00000 2.88139
										CHANNELS 3 Zrotation Xrotation Yrotation
										JOINT LeftHandIndex2
										{
											OFFSET 5.48836 0.00000 0.00000
											CHANNELS 3 Zrotation Xrotation Yrotation
											JOINT LeftHandIndex3
											{
												OFFSET 3.01859 0.00000 0.00000
												CHANNELS 3 Zrotation Xrotation Yrotation
												End site
												{
													OFFSET 0.00000 0.00000 0.00000
												}
											}
										}
									}
									JOINT LeftHandMiddle1
									{
										OFFSET 14.26970 0.00000 -0.09147
										CHANNELS 3 Zrotation Xrotation Yrotation
										JOINT LeftHandMiddle2
										{
											OFFSET 6.17440 0.00000 0.00000
											CHANNELS 3 Zrotation Xrotation Yrotation
											JOINT LeftHandMiddle3
											{
												OFFSET 3.56744 0.00000 0.00000
												CHANNELS 3 Zrotation Xrotation Yrotation
												End site
												{
													OFFSET 0.00000 0.00000 0.00000
												}
											}
										}
									}
									JOINT LeftHandRing1
									{
										OFFSET 12.69180 0.00000 -3.06433
										CHANNELS 3 Zrotation Xrotation Yrotation
										JOINT LeftHandRing2
										{
											OFFSET 5.62556 0.00000 0.00000
											CHANNELS 3 Zrotation Xrotation Yrotation
											JOINT LeftHandRing3
											{
												OFFSET 3.56744 0.00000 0.00000
												CHANNELS 3 Zrotation Xrotation Yrotation
												End site
												{
													OFFSET 0.00000 0.00000 0.00000
												}
											}
										}
									}
									JOINT LeftHandPinky1
									{
										OFFSET 11.11390 0.00000 -6.03719
										CHANNELS 3 Zrotation Xrotation Yrotation
										JOINT LeftHandPinky2
										{
											OFFSET 4.52789 0.00000 0.00000
											CHANNELS 3 Zrotation Xrotation Yrotation
											JOINT LeftHandPinky3
											{
												OFFSET 2.46976 0.00000 0.00000
												CHANNELS 3 Zrotation Xrotation Yrotation
												End site
												{
													OFFSET 0.00000 0.00000 0.00000
												}
											}
										}
									}
								}
							}
						}
					}
					JOINT pCube4
					{
						OFFSET 0.00000 10.91090 1.10792
						CHANNELS 3 Zrotation Xrotation Yrotation
						End site
						{
							OFFSET 0.00000 0.00000 0.00000
						}
					}
				}
			}
		}
	}
	JOINT RightUpLeg
	{
		OFFSET -9.98441 0.00000 0.00000
		CHANNELS 3 Zrotation Xrotation Yrotation
		JOINT RightLeg
		{
			OFFSET 0.00000 -42.11790 0.00000
			CHANNELS 3 Zrotation Xrotation Yrotation
			JOINT RightFoot
			{
				OFFSET 0.00000 -45.00020 -0.00001
				CHANNELS 3 Zrotation Xrotation Yrotation
				JOINT RightForeFoot
				{
					OFFSET 0.00000 -3.74820 0.00000
					CHANNELS 3 Zrotation Xrotation Yrotation
					JOINT RightToeBase
					{
						OFFSET 0.00000 0.06325 14.43120
						CHANNELS 3 Zrotation Xrotation Yrotation
						End site
						{
							OFFSET 0.00000 0.00000 0.00000
						}
					}
				}
			}
		}
	}
	JOINT LeftUpLeg
	{
		OFFSET 9.98441 0.00000 0.00000
		CHANNELS 3 Zrotation Xrotation Yrotation
		JOINT LeftLeg
		{
			OFFSET 0.00000 -42.11800 0.00000
			CHANNELS 3 Zrotation Xrotation Yrotation
			JOINT LeftFoot
			{
				OFFSET 0.00000 -45.00070 0.00000
				CHANNELS 3 Zrotation Xrotation Yrotation
				JOINT LeftForeFoot
				{
					OFFSET 0.00000 -3.74824 0.00000
					CHANNELS 3 Zrotation Xrotation Yrotation
					JOINT LeftToeBase
					{
						OFFSET 0.00000 0.06325 14.43110
						CHANNELS 3 Zrotation Xrotation Yrotation
						End site
						{
							OFFSET 0.00000 0.00000 0.00000
						}
					}
				}
			}
		}
	}
}
MOTION
Frames: 4
Frame Time: 0.050000
-0.03315612710459347 -0.01367046249906572 0.0021733773610311856 -0.021385538581953134 0.029788184178022137 0.039306398119285324 -1.7268367963220137 1.045849776100333 -1.068837424722372 -0.7678410243265 3.589312330307148 0.30914410847075563 -1.1020989384890634 -1.8635934554309816 -0.8079780846058568 0.054424136712358843 -0.2598733473338541 -0.7806118298969061 0.6184489846259971 11.943975428656815 -2.1447041392560573 0.21109246028904616 -0.5749139426196691 -6.389389046224909 1.0121075671732132 -15.889878084472322 -0.5475017748536767 -5.5388288794924465 2.062692879461548 -15.97329968799086 69.98901650623367 -5.1028379472971075 4.682368334078498 31.02395069979479 9.537602155723828 89.8620572547159 20.398015286037964 -0.414485381673328 -3.80263423459393 4.528695441671068 -0.1116589681871322 -1.5868375102652075 0.014476152888732448 0.025023136445416455 -56.19677555702329 0.04946826264176819 0.035086178394093975 -56.26813178419109 -38.76975371039885 -0.03498109402789388 -0.009124798554126142 -0.04575241230532127 -0.012948199965245941 0.03203679015060464 -0.030374869465856335 -0.020924334351553647 0.04220887775882945 -36.65995354320937 0.027316498020269694 -0.03529114519181443 0.005685193019714394 0.005476433651335952 -0.04589147384705245 0.024282898424045844 -0.016247484233805978 0.025926736482146488 -19.76667699166608 -0.049121910786359524 -0.02688070001972735 0.035617708947146706 0.019605573771430768 0.017477011173500562 0.013654978112376873 0.03095373562980838 0.03653806026940155 24.065726344669656 0.038606008019252055 0.01616257991716648 28.875723324802987 0.0463297520322453 -0.03428335760363286 28.896347359744556 -0.004363075492067892 0.012994718197134455 5.369250832585487 1.5104831673867727 13.771806572864987 -67.47554159567139 17.307807486047782 -4.497240369243141 4.161824232823949 -5.264094089153667 -78.27289034019229 -12.953126940313338 -0.6687841570688282 0.03622161424437709 -0.49484095991342725 0.03795850429268177 -8.147937549227729 0.030991225824236857 0.021011381375133725 44.54504242849642 0.01361044616850787 0.014559810392558617 44.57016320906974 12.491506684834327 0.009472741605050456 -0.04402751148966379 0.04881224215099052 0.0036449220949600907 0.02967616436681861 -0.0022611200102695046 0.04424490717461189 0.013854903882604904 11.151220775505035 -0.049723853344114596 -0.0031296688838830205 0.024636601548705207 -0.004146279378607104 -0.009369673124996779 -0.024426701385691658 -0.04917315714751364 0.046057675925658945 4.777146538315154 -0.030025670807632167 -0.019594888363002595 0.014360658197681854 -0.005944483187780362 -0.03882177258425285 0.009741747977399478 -0.027341787262877736 0.006808678826326038 -5.601893368018364 -0.007746438753433425 -0.0018372681253305237 -6.701563532282445 0.02936062321864888 -0.04492986430290212 -6.757100346466867 0.00227332937732973 0.027549401717568034 -0.008248308559420367 -0.005039884261361885 -0.007980184179730242 8.025520416047637 3.464726757089799 -19.217868829680217 0.027739399722316274 10.434100985997224 0.013972723602910839 -5.601728688566715 -15.614339441186651 3.195321021663095 -0.02855726951595914 0.032749768741940695 0.03916389266345121 -0.02362074160548673 4.661125128209648 0.01107928568212114 12.503462454301816 -8.232498886440858 6.870451235902587 0.01592956233577027 46.411694959233806 0.010807008157968565 -4.34733005802834 -14.72352011053254 -3.809674575211962 -0.0028700977634753635 0.03985863348277758 0.02587186436946009 -0.021683173594418063 -10.753334058891763 -0.020095167651704913 
-0.0068032249051109845 -0.00010551245111299531 -0.036020638511664434 0.020498693428291623 -0.03622817879897743 0.021887600295175367 -1.8578676736574968 0.9178929093634411 -0.9940241921400942 -0.8393284191338262 3.5914303097894456 0.34677875824909404 -1.1187472722756353 -1.951081773250934 -0.9116236477322415 0.0984179608278996 -0.2192299290560244 -0.7787037397689417 0.45067493914713685 12.087588642102196 -1.7268373919564635 0.22671314527203246 -0.4517970374299604 -5.398685466519704 0.8385099319277759 -15.711961639500267 -0.40733731522024863 -5.425937438197535 2.031499036468132 -15.797874526414777 69.96590650134662 -4.38830837721307 4.392522497384331 31.442954723336218 9.620639956851322 89.55251217690736 20.35325905195528 -0.4208386877714096 -3.727917800900962 4.55290687678787 -0.10092564634286882 -1.6146583162435877 0.010692408869308149 -0.020528786065180528 -56.21052178565744 0.0010098141926665988 0.0034206254411694526 -56.28202355547651 -38.76098775365063 -0.03466148131422717 -0.02790181017967428 -0.016872276142120456 0.016852980445972568 0.04001063561588639 0.0060767768851187585 0.003871744862658493 -0.03338692169667308 -36.680401976666005 0.003388635873614902 0.035268101080558514 0.03245642322022287 0.03156941075303884 0.003965185999733173 -0.034740934226715044 -0.0448352291811671 -0.038659266740717 -19.72301856721358 -0.03849847474215727 0.010353610826916472 0.025223502529874053 -0.024280292783149044 0.004596951716041905 0.040134129452362596 0.010397801703695387 0.013157910405879603 24.076730939048637 0.013511624540544916 0.02554299862083602 28.88382025291652 0.017021221828755206 -0.048353391307189866 28.913533015478208 -0.0034146411786012587 -0.030266448885405355 5.856491962152018 1.6216535281861282 13.774366437992564 -67.25307166544809 15.539056875307253 -5.91497732053171 3.6498969917594724 -5.209324355565115 -79.94703948990943 -11.653565414584406 -0.29828802601279164 -0.24385774585192388 -0.43837176746719836 0.07178450014909062 -8.10164369529272 -0.0073053919627788805 -0.03590961867256278 44.518500776842664 -0.006184495456799605 0.039530397297796026 44.55085401559055 12.436860960749064 0.028465751522823633 -0.011537295417961757 0.009425378863596656 0.004266658998300933 0.025523266955042135 -0.046472311949634464 -0.019190075399462703 -0.04988006750809959 11.12121939688636 0.010112257296722965 0.04042542137828072 0.007274889690523574 0.024635179226493716 0.0029910089701091504 0.03569905351327777 0.021714824228163964 -0.026934895949359685 4.77453890512922 -0.04347944601796817 0.0321112994316517 -0.01348440748975201 -0.028524976322667435 0.03159396033485674 -0.03567460319833676 0.008937033380705953 0.02142034241744165 -5.644664995043355 0.019831002205292637 0.037115411655517176 -6.767129757532012 0.03773587625360945 -0.024214663580719026 -6.750905862891769 -0.005362903666700747 0.046671548746576405 0.02505170214942771 0.027349260214315333 0.012677086082381219 7.9980370817689845 3.531806236191249 -19.221506401255166 0.0013088183670846736 10.351879587061601 0.022370550700962978 -5.667802706753891 -15.615812451654097 3.1650406112660874 0.015361878095635568 0.0037613068361985855 -0.04876979922036859 0.0021961351020612276 4.691681546782464 -0.0023222336225047586 12.415320306587054 -8.231862237301542 6.866673982810653 0.012862892455496608 46.41120320365586 0.023781434226130164 -4.372581576525737 -14.748809540451866 -3.8332780274329172 0.0002043015651287514 -0.02932260768862667 -0.018431772811514754 -0.00090949504157708 -10.75079887036005 -0.010279269225215939 
-0.02366838291812495 -0.008969843463441617 0.023907414255902412 0.017795944617462985 -0.020307956565286212 0.028320618446739162 -1.9469604642387397 0.7339645121400686 -0.9984361479288968 -0.7911554879522718 3.6126473076112067 0.38188368813842855 -1.1121380084304455 -2.004626414056425 -0.9571683799975796 -0.014739147204351143 -0.2839205629748842 -0.7776138746557403 0.26700703753475497 12.31523771550986 -1.368513768278363 0.18133154180663671 -0.28954321037958203 -4.579457896452816 0.6218812047346503 -15.416629261212343 -0.32538113046696493 -5.479438078265827 2.0751045166171895 -15.731464278378745 69.69770750827367 -3.889309593777807 4.406517824821394 31.366077081242047 9.305957211423722 89.83844760963407 20.52981057766326 -0.44484385584425945 -3.747783551070841 4.5240133405618925 -0.1564039951759159 -1.6236094087639446 0.02080649138184987 -0.014871014489586554 -56.207050910568476 -0.02044184337949386 -0.014410363903441177 -56.19193130844913 -38.799178121690346 -0.032185995036701484 -0.0056243632778814915 -0.008569833482347414 0.04498920567256874 -0.000945763852403189 0.029136517903854107 -0.04841988958379421 0.024979827293866694 -36.67354971213916 0.013688828246138887 0.022614181227480008 -0.04553614464535359 0.01562031260713934 0.03262875953579775 0.022227933108793792 -0.018409922353161606 0.014087548381302861 -19.71965762820486 -0.03425735355692301 0.028589992294213416 -0.020342474856071477 -0.019989957744349824 -0.013614863012021786 -0.03517859928439984 0.02357054291105883 0.0194558379007237 24.04414289839938 -0.020329072781223572 -0.013520961959994532 28.87108498101472 -0.029091892548385963 0.04908010952043189 28.824080077491246 0.009723764360833657 0.02869912726620821 6.393914151175794 1.6343712043809835 13.908100724652588 -66.98570554203924 14.004851090329636 -7.443901020725207 3.1957759260607146 -5.290576221414476 -82.58289917253963 -10.330520916899523 -0.38424439324677045 -0.3980677490657203 -0.4782639262495614 0.04796844273858403 -8.153027482516947 -0.012972627841857482 -0.01425757704409586 44.58972965938055 0.004626169821688575 -0.041219016464434564 44.55352625453112 12.50729697413608 0.0022298619886499944 -0.03608942082489356 0.010475381806718396 -0.010686330130168948 -0.001955305657306186 -0.02005041982977868 0.006493123270299597 0.03396991835405977 11.093849822458244 0.005356546352714551 -0.027740996466714306 0.040332061395227374 0.0020077002853228234 -0.04287907424153735 -0.025510936702400074 0.002582337507200224 0.03767153655220972 4.735698066654631 -0.011447452282151497 0.009649105639807292 -0.007716863259569802 -0.03610509780251807 -0.013188473600693978 -0.001623642769652011 0.01905724013271654 0.005757187201613115 -5.6194746935393765 0.009496577174281437 0.0008784953915912501 -6.71818486961949 0.015131844715739716 0.0375970473099822 -6.756069889148203 -0.023665750355492676 -0.02962846312893269 -0.03566480463622767 -0.02661993739021924 -0.020773376284897793 8.019630058551721 3.444154772408975 -19.179226634570654 -0.006269686377347922 10.373286822293636 0.04159667673217646 -5.657443872556994 -15.660850220866237 3.1817668926335934 -0.0008486572363284652 -0.01583782099359323 0.03916215774373905 0.0071577030214161445 4.705434459593098 0.04414055956876354 12.466512951131154 -8.249188543420862 6.833733523073371 -0.041047052741261456 46.38547723445429 -0.019712199448103863 -4.293328507211892 -14.79675950084545 -3.8080321254661427 0.006697488066314034 -0.021409476968333414 0.011661127539785272 0.011316814782022986 -10.756467988428415 -0.018770925404557753 
0.02610746079884166 -0.0050119083853372905 0.012773715613055282 0.025156110386652653 -0.012942270287632724 -0.01677519247728498 -2.0733269836895594 0.5307620424601638 -0.9078286197090173 -0.8163482387417661 3.581030043812253 0.32655112916964785 -1.106116898741118 -2.0675877334337116 -1.1261821654306272 -0.012131226297636633 -0.2521281112846296 -0.7894437548392653 0.1300184871911281 12.500196024115565 -0.9888375511260205 0.13547680363626677 -0.09597576426689386 -3.701529697939397 0.4872103081655469 -15.126202773171247 -0.31016503749071783 -5.500115053379217 1.9811821815586943 -15.649151285862697 69.31966092426772 -3.5524451420914205 4.6754816476779455 30.899838797767938 8.737255323575187 91.11323548644279 20.615727458919693 -0.4111209676524977 -4.021253043338691 4.491336632778565 -0.10933271082059859 -1.5749356980183769 0.028305243107547468 -0.024278916900272254 -56.2053989647352 0.032299711131891444 0.008058617213607433 -56.22398005737961 -38.816427326186 -0.006574050512729316 -0.003639357092505491 -0.028212547262711118 0.013281153137560788 0.025391942517238784 -0.029973929552708403 0.04288924321612437 0.018227702618275003 -36.73918841139978 0.007527470665488598 0.02164868187346675 0.00920231791561338 -0.012531915425090216 0.016419153250131432 0.036961469109489456 0.03625293060784884 0.03678330321750534 -19.72466098622152 -0.02108074606730976 0.02944350368986514 -0.03692622277525902 -0.020430617740233005 -0.04578630307260209 -0.004285423845579096 0.012523043299646316 0.049920109662268314 24.073457873714023 0.046086722142709036 -0.04836434921405316 28.8466571227292 0.03596631574130228 -0.015043768708007272 28.8787639045863 -0.012799287228198052 0.030502073720768578 6.8539321789715935 1.693426301158131 13.877058197201372 -66.65968758706714 13.15195001826033 -8.83982432548568 3.9431272078087045 -6.030602617139313 -86.7575053194694 -8.91931094365179 -0.6133008199704454 -0.4335330177825051 -0.429626622556628 0.07756313935763452 -8.147407788624955 0.03478434612340806 0.006430853925284545 44.536345177202506 0.04155787703085643 0.007507856166549143 44.52381445626694 12.453066322057872 -0.022380213007448076 -0.03090787021252154 0.03650023973282954 -0.046181878943594476 0.03244125131081843 -0.04373158064135133 0.03905038250746267 -0.025313691171357084 11.134902909708304 0.027142183678845615 -0.0223851159293724 -0.04729610913710085 0.008204419040588619 0.035290291297356974 0.011231238272376112 -0.01557271654966937 0.03486322979784114 4.772909881121258 0.04950310819656773 0.01247905957831533 -0.018262492961127943 -0.012181774853559039 -0.012739133320579389 -0.014848091400258157 -0.030896550082512724 0.017733210958230227 -5.554955153903492 0.04037954373861707 -0.04057799621319921 -6.73236072650212 0.0180732511012203 0.019809785539601138 -6.687510142238653 0.030476845721754877 -0.03601049522280238 0.02592268699672123 0.03666084970150441 0.01510713794051393 8.04136153913771 3.4810552972967317 -19.26498549266826 -0.03849703011096755 10.397787989344408 -0.03563619543347306 -5.596750346793351 -15.637705780808284 3.1915405912144443 0.026923774030029185 0.033930232280823786 0.020688013730242514 -0.046693223146462 4.701688766675035 -0.01667907414005422 12.493223222109703 -8.20965493503409 6.854561133995894 0.030771839696633912 46.40789309856996 -0.006402037178852755 -4.352259902941973 -14.77217118481736 -3.8467450591782977 -0.03990463457264691 -0.031017989603662362 -0.03376581560071524 -0.0392381823947739 -10.714727046246052 -0.04223048218020458 
